<?xml version="1.0" encoding="utf-8"?>
<!-- Generator: Adobe Illustrator 28.0.0, SVG Export Plug-In . SVG Version: 6.00 Build 0)  -->
<svg version="1.1" id="Layer_1" xmlns="http://www.w3.org/2000/svg" xmlns:xlink="http://www.w3.org/1999/xlink" x="0px" y="0px"
	 viewBox="0 0 835.4 622.3" style="enable-background:new 0 0 835.4 622.3;" xml:space="preserve">
<style type="text/css">
	.st0{display:none;fill:#8BDCFF;}
	.st1{display:none;}
	.st2{display:inline;fill:#FFFFFF;}
</style>
<rect x="-102.8" y="-354.5" class="st0" width="1091.7" height="1082.3"/>
<path id="black_1" d="M4.6,367.7c-0.9-0.6-1.2-1.7-0.7-2.7c9.1-16.4,80.9-176.9,86.3-166.7c6.7,12.5,209.8,141.2,239.2,150.5
	c25.6,8.2,58.7,22.2,82.1,12.8c12.5-5-25.8,173.9-10.7,190.2c13.7,14.9,43.7,10.1,47.6,9.4c0.3,0,356.6-223.3,356.6-223.3
	c0.6-0.4,0.9-1.1,0.9-1.8c-0.6-8.4-11.2-49-57.8-75.4c-29.1-16.5-57.4-31.9-74.9-32.5c0,0,97.5-63.5,97.9-70.8l64.2,178.2
	c0.3,0.9,0,1.8-0.7,2.3l-431.4,284c-0.7,0.5-1.5,0.5-2.2,0.1L4.6,367.7z"/>
<g class="st1">
	<path class="st2" d="M553.2,188.6c11.3-5.4,25.8-1.2,33.8,3.7c10.6,6.6,11.6,14.6,2.7,19.1c-9.3,4.6-23.8,3-34.3-3.5
		C546.2,202.3,541.7,194,553.2,188.6z M546.9,184.5c-14.9,7-17.4,18.5-1.2,28.5c15.3,9.4,35.9,9.8,50,2.7
		c12.4-6.2,17.8-17.4,0.5-28.1C581.9,178.7,562.1,177.4,546.9,184.5z M457.4,202.5l-10.6,4.8l73.3,45.2l10.1-5.1l-18.6-11.5l0.2-5.7
		l42.7,5l11.9-6l-52.9-5.8l1.5-22.7l-12.3,5.8l0.4,18.4c0.1,1.9,0.2,4.2,0.6,5.9l-0.2,0.1L457.4,202.5z M434.4,245.6
		c13.1-6.2,29.1-1.9,37.7,3.4c11.4,7,12,16,1.7,21.1c-10.7,5.4-27,3.9-38.3-3C425.6,261,421.1,251.9,434.4,245.6z M426.2,241.1
		c-17.3,8.1-20.9,21-3.4,31.7c16.5,10.2,39.7,10,56.1,1.8c14.3-7.2,21.2-19.8,2.5-31.2C466,233.9,443.8,232.9,426.2,241.1z
		 M323.8,263.2l-12.4,5.6l79.5,48.7l11.9-6l-20.2-12.4l0.6-6.4l47.8,4.6l13.9-7l-59.3-5.2l3.4-25.4l-14.3,6.7l-1,20.5
		c0,2.1,0,4.6,0.2,6.6l-0.3,0.1L323.8,263.2z"/>
</g>
<g>
	<path d="M592.1,176.3c-7.4-4.4-14.2-7.3-20.5-8.5s-11.5-0.7-15.6,1.5s-5.3,5.2-3.5,8.8s6.4,7.7,13.9,12.2
		c7.4,4.4,14.3,7.2,20.5,8.4s11.4,0.6,15.5-1.6c4.1-2.2,5.2-5.2,3.4-8.8C604,184.8,599.4,180.7,592.1,176.3z"/>
	<path d="M462.5,247.1c-7.8-4.5-15-7.4-21.6-8.5c-6.6-1.2-12.2-0.6-16.6,1.8c-4.4,2.4-5.7,5.5-3.9,9.2c1.9,3.8,6.8,7.9,14.7,12.5
		c7.8,4.5,15.1,7.3,21.7,8.4c6.6,1.1,12.1,0.5,16.5-1.9c4.3-2.4,5.6-5.5,3.7-9.2C475.1,255.7,470.3,251.6,462.5,247.1z"/>
	<path d="M763.9,146.5c-27.6,3.3-286.6-162-314.6-142.9C329.6,85.3,100.4,185.5,100.4,185.5S296.1,335,380.2,349.4
		C449.5,361.3,776.2,145.1,763.9,146.5z M432.9,304.1l-43.1-8.6c-2,1.9-4.5,3.8-7.7,5.5l-6.3,3.5l28.1,15.8l-12.3,6.8l-106.5-59.7
		l12.8-6.8l64.5,36.3l3.4-1.9c5.2-2.8,8.3-5.7,9.5-8.7s0.3-6.4-2.6-10.1c-2.9-3.7-7.9-8.1-15-13.2l12.9-6.9
		c13.8,9.6,21.6,18.1,23.5,25.5c0.3,1.3,0.5,2.6,0.5,3.8l53.2,10.2L432.9,304.1z M486,276c-8.1,4.5-17.7,6.2-28.8,5
		s-22.7-5.2-34.7-12.1c-12.1-6.9-19.1-13.5-21-19.8s1.3-11.7,9.7-16.2s18.2-6.1,29.2-4.8s22.5,5.4,34.3,12.3
		c11.7,6.8,18.6,13.3,20.5,19.5C497.3,266.1,494.2,271.5,486,276z M564.9,230.6l-40.6-8.9c-1.8,1.8-4.2,3.6-7.2,5.2l-5.9,3.2
		l26.6,15.6l-11.5,6.4l-100.7-58.8l12-6.3l61,35.8l3.2-1.7c4.8-2.6,7.7-5.4,8.8-8.2c1.1-2.9,0.2-6.1-2.6-9.7
		c-2.8-3.6-7.5-7.9-14.3-12.8l12-6.4c13.1,9.5,20.5,17.7,22.4,24.8c0.3,1.3,0.5,2.5,0.5,3.7l50.1,10.6L564.9,230.6z M614.6,204.4
		c-7.6,4.2-16.6,5.7-27,4.4c-10.5-1.3-21.4-5.4-32.7-12.1c-11.4-6.8-18.1-13.3-20-19.3c-1.9-6.1,1.1-11.2,8.9-15.4
		c7.8-4.2,17-5.6,27.4-4.2c10.4,1.4,21.2,5.5,32.4,12.3c11.1,6.7,17.6,13,19.5,19C625,195.1,622.2,200.2,614.6,204.4z M650.5,178.5
		c-2,1.1-4.6,1.5-7.9,1.3c-3.3-0.3-6.2-1.2-8.7-2.7c-2.6-1.6-4.1-3.3-4.4-5.2c-0.4-1.9,0.5-3.4,2.5-4.5c2.1-1.1,4.7-1.6,7.9-1.3
		s6.1,1.2,8.7,2.8c2.5,1.5,4,3.2,4.4,5.1C653.4,175.9,652.5,177.4,650.5,178.5z"/>
</g>
</svg>
