<?xml version="1.0" encoding="utf-8"?>
<!-- Generator: Adobe Illustrator 28.0.0, SVG Export Plug-In . SVG Version: 6.00 Build 0)  -->
<svg version="1.1" id="Layer_1" xmlns="http://www.w3.org/2000/svg" xmlns:xlink="http://www.w3.org/1999/xlink" x="0px" y="0px"
	 viewBox="0 0 820.2 616.4" style="enable-background:new 0 0 820.2 616.4;" xml:space="preserve">
<style type="text/css">
	.st0{display:none;}
	.st1{display:inline;fill:#FF0000;}
	.st2{fill:#FF0000;}
	.st3{display:inline;}
</style>
<rect x="-123.1" y="-354.7" class="st0" width="1091.7" height="1082.3"/>
<g class="st0">
	<path class="st1" d="M564.9,188.4c11.3-5.4,25.8-1.2,33.8,3.7c10.6,6.6,11.6,14.6,2.7,19.1c-9.3,4.6-23.8,3-34.3-3.5
		C557.9,202.1,553.4,193.8,564.9,188.4z M558.6,184.3c-14.9,7-17.4,18.5-1.2,28.5c15.3,9.4,35.9,9.8,50,2.7
		c12.4-6.2,17.8-17.4,0.5-28.1C593.6,178.5,573.8,177.2,558.6,184.3z M469.1,202.3l-10.6,4.8l73.3,45.2l10.1-5.1l-18.6-11.5l0.2-5.7
		l42.7,5l11.9-6l-52.9-5.8l1.5-22.7l-12.3,5.8l0.4,18.4c0.1,1.9,0.2,4.2,0.6,5.9l-0.2,0.1L469.1,202.3z M446.1,245.4
		c13.1-6.2,29.1-1.9,37.7,3.4c11.4,7,12,16,1.7,21.1c-10.7,5.4-27,3.9-38.3-3C437.3,260.8,432.8,251.7,446.1,245.4z M437.9,240.9
		c-17.3,8.1-20.9,21-3.4,31.7c16.5,10.2,39.7,10,56.1,1.8c14.3-7.2,21.2-19.8,2.5-31.2C477.7,233.7,455.5,232.7,437.9,240.9z
		 M335.5,263l-12.4,5.6l79.5,48.7l11.9-6l-20.2-12.4l0.6-6.4l47.8,4.6l13.9-7l-59.3-5.2l3.4-25.4l-14.3,6.7l-1,20.5
		c0,2.1,0,4.6,0.2,6.6l-0.3,0.1L335.5,263z"/>
</g>
<g>
	<g>
		<g>
			<path class="st2" d="M0,364.7c3.1-6.1,9.1-18.9,17-35.7c11.4-24.1,25.5-54.2,38.1-79.5c14.6-29.3,21.4-40.6,24.6-44.9
				c4,3.7,13.1,10.7,34.1,25.1c20,13.7,46.7,31.1,75.2,49.1c49.4,31.2,112.8,69.4,129.2,74.6c3.6,1.1,7.3,2.4,11.3,3.7
				c17.3,5.8,36.9,12.4,54.5,12.4c5.6,0,10.7-0.7,15.4-2c0.5,10.7-3.7,41.8-7.1,67.4c-9.1,68.1-14,110.2-4.8,120.1
				c9.4,10.2,24.7,12.3,36,12.3c8,0,14.4-1,16.2-1.4c1-0.2,1-0.2,57.6-35.6c33.4-20.9,78-48.8,122.6-76.7
				C709,397.8,798.1,342,798.1,342l0.2-0.1c2-1.4,3.2-3.8,3-6.2c-0.9-12.2-13.8-53-60.3-79.4c-24.6-14-46.7-26.1-64.1-30.9
				c9.4-6.2,23.9-15.9,38.4-25.8c25.2-17.3,37.9-26.9,44.4-32.7L820.2,335L392.4,616.4L0,364.7z"/>
		</g>
		<g>
			<g>
				<path class="st2" d="M376.7,344.7L376.7,344.7c-1.9,0-3.7-0.1-5.2-0.4c-73.2-12.5-235.7-131.6-270.9-157.9
					C141.9,168,336.3,80,442.5,7.5c0.2-0.2,1.2-0.7,3.8-0.7c25.9,0,112.4,46.9,182,84.5C685,122,724,142.9,743.7,149.2
					C698,183.2,446.6,344.7,376.7,344.7z M265,267l116.9,65.6l22.5-12.5l-28-15.8c1.9-1.2,3.7-2.4,5.2-3.6l42.4,8.5l28.6-15.9
					l-63-12.1c-0.1-0.3-0.1-0.6-0.2-0.9c-2.2-8.6-10.6-17.9-25.5-28.3l-2.5-1.8l-22.8,12.1l6.6,4.7c6.7,4.7,11.4,8.8,14,12.1
					c1.2,1.5,2.5,3.7,1.9,5.2c-0.4,1-1.9,3.2-7.2,6.1l-1,0.5l-64.5-36.3L265,267z M423.5,222.5c-8.9,0-17.1,2-24.3,5.8
					c-14.1,7.6-13.7,17.1-12.1,22.1c2.4,7.6,10,15.1,23.3,22.7c12.5,7.2,24.8,11.4,36.6,12.7c2.5,0.3,4.9,0.4,7.3,0.4
					c9.1,0,17.3-2,24.5-6c13-7.3,13.5-16,11.6-22c-2.4-7.5-9.8-14.8-22.8-22.3c-12.4-7.2-24.6-11.5-36.2-12.9
					C428.8,222.6,426.1,222.5,423.5,222.5z M405.8,192.8l110.9,64.8l21.6-12l-26.6-15.5c1.6-1,3.1-2,4.4-3.1l39.9,8.8l27.2-15.1
					l-59.6-12.8c-0.1-0.3-0.1-0.6-0.2-0.8c-2.2-8.3-10.2-17.3-24.3-27.6l-2.5-1.8l-21.8,11.6l6.4,4.7c6.3,4.6,10.8,8.6,13.3,11.8
					c0.9,1.2,2.4,3.5,1.9,4.9c-0.3,0.8-1.5,2.8-6.5,5.6l-0.7,0.4l-61-35.7L405.8,192.8z M553.8,152.1c-8.1,0-15.5,1.8-22.1,5.3
					c-13.4,7.2-12.9,16.4-11.3,21.3c2.3,7.4,9.6,14.6,22.2,22.1c11.9,7.1,23.5,11.4,34.7,12.8c2.7,0.3,5.3,0.5,7.8,0.5
					c8.3,0,15.8-1.8,22.3-5.5c13-7.3,12.4-16.4,10.9-21.2c-2.3-7.2-9.4-14.4-21.7-21.8c-11.7-7.1-23.3-11.4-34.3-12.9
					C559.4,152.3,556.5,152.1,553.8,152.1z M628.4,160.9c-3.2,0-6.1,0.7-8.4,2c-3.9,2.2-5.8,5.7-5,9.8c0.6,3.4,2.9,6.2,6.8,8.5
					c3.2,1.9,6.8,3.1,10.8,3.4c0.8,0.1,1.6,0.1,2.4,0.1c3.2,0,6.1-0.7,8.4-2c3.9-2.2,5.8-5.9,4.9-9.9c-0.7-3.3-3-6.1-6.7-8.4
					c-3.2-1.9-6.9-3.1-10.8-3.5C629.9,160.9,629.1,160.9,628.4,160.9z"/>
			</g>
			<g>
				<path class="st2" d="M583.4,194.2c-1.6,0-3.3-0.2-5.1-0.5c-5.6-1.1-12-3.7-18.9-7.8c-8.7-5.2-11.2-8.5-12-10.1
					c-0.3-0.6-0.3-0.9-0.3-0.9l0,0c0,0,0.3-0.5,1.7-1.3c1.9-1,4.2-1.6,7-1.6c1.6,0,3.4,0.2,5.3,0.6c5.6,1.1,12,3.7,18.8,7.9
					c8.5,5.1,11,8.5,11.8,10c0.3,0.6,0.3,0.9,0.3,0.9l0,0c0,0-0.3,0.5-1.6,1.3C588.5,193.6,586.2,194.2,583.4,194.2z"/>
			</g>
			<g>
				<path class="st2" d="M453.2,265.9c-1.6,0-3.3-0.2-5.2-0.5c-6-1-12.8-3.7-20.1-7.8c-9.2-5.3-11.9-8.7-12.7-10.3
					c-0.3-0.6-0.3-0.9-0.3-1c0,0,0.3-0.7,2.1-1.6c2.2-1.2,4.9-1.8,8-1.8c1.6,0,3.4,0.2,5.3,0.5c6,1.1,12.8,3.7,20,7.9
					c9,5.2,11.6,8.6,12.4,10.2c0.4,0.9,0.7,1.3-1.7,2.6C459,265.3,456.3,265.9,453.2,265.9z"/>
			</g>
		</g>
	</g>
</g>
<g class="st0">
	<path id="black_1_00000019657463974689924320000008209216256573273735_" class="st3" d="M-5,367.5c-0.9-0.6-1.2-1.7-0.7-2.7
		c9.1-16.4,80.9-176.9,86.3-166.7c6.7,12.5,209.8,141.2,239.2,150.5c25.6,8.2,58.7,22.2,82.1,12.8c12.5-5-25.8,173.9-10.7,190.2
		c13.7,14.9,43.7,10.1,47.6,9.4c0.3,0,356.6-223.3,356.6-223.3c0.6-0.4,0.9-1.1,0.9-1.8c-0.6-8.4-11.2-49-57.8-75.4
		c-29.1-16.5-57.4-31.9-74.9-32.5c0,0,97.5-63.5,97.9-70.8l64.2,178.2c0.3,0.9,0,1.8-0.7,2.3l-431.4,284c-0.7,0.5-1.5,0.5-2.2,0.1
		L-5,367.5z"/>
	<g class="st3">
		<path d="M582.5,176.1c-7.4-4.4-14.2-7.3-20.5-8.5s-11.5-0.7-15.6,1.5s-5.3,5.2-3.5,8.8s6.4,7.7,13.9,12.2
			c7.4,4.4,14.3,7.2,20.5,8.4s11.4,0.6,15.5-1.6c4.1-2.2,5.2-5.2,3.4-8.8C594.4,184.6,589.8,180.5,582.5,176.1z"/>
		<path d="M452.9,246.9c-7.8-4.5-15-7.4-21.6-8.5c-6.6-1.2-12.2-0.6-16.6,1.8c-4.4,2.4-5.7,5.5-3.9,9.2c1.9,3.8,6.8,7.9,14.7,12.5
			c7.8,4.5,15.1,7.3,21.7,8.4c6.6,1.1,12.1,0.5,16.5-1.9c4.3-2.4,5.6-5.5,3.7-9.2C465.5,255.5,460.7,251.4,452.9,246.9z"/>
		<path d="M754.3,146.3c-27.6,3.3-286.6-162-314.6-142.9C320,85.1,90.8,185.3,90.8,185.3s195.7,149.5,279.8,163.9
			C439.9,361.1,766.6,144.9,754.3,146.3z M423.3,303.9l-43.1-8.6c-2,1.9-4.5,3.8-7.7,5.5l-6.3,3.5l28.1,15.8l-12.3,6.8l-106.5-59.7
			l12.8-6.8l64.5,36.3l3.4-1.9c5.2-2.8,8.3-5.7,9.5-8.7s0.3-6.4-2.6-10.1c-2.9-3.7-7.9-8.1-15-13.2l12.9-6.9
			c13.8,9.6,21.6,18.1,23.5,25.5c0.3,1.3,0.5,2.6,0.5,3.8l53.2,10.2L423.3,303.9z M476.4,275.8c-8.1,4.5-17.7,6.2-28.8,5
			s-22.7-5.2-34.7-12.1c-12.1-6.9-19.1-13.5-21-19.8s1.3-11.7,9.7-16.2s18.2-6.1,29.2-4.8s22.5,5.4,34.3,12.3
			c11.7,6.8,18.6,13.3,20.5,19.5C487.7,265.9,484.6,271.3,476.4,275.8z M555.3,230.4l-40.6-8.9c-1.8,1.8-4.2,3.6-7.2,5.2l-5.9,3.2
			l26.6,15.6l-11.5,6.4L416,193.1l12-6.3l61,35.8l3.2-1.7c4.8-2.6,7.7-5.4,8.8-8.2c1.1-2.9,0.2-6.1-2.6-9.7
			c-2.8-3.6-7.5-7.9-14.3-12.8l12-6.4c13.1,9.5,20.5,17.7,22.4,24.8c0.3,1.3,0.5,2.5,0.5,3.7l50.1,10.6L555.3,230.4z M605,204.2
			c-7.6,4.2-16.6,5.7-27,4.4c-10.5-1.3-21.4-5.4-32.7-12.1c-11.4-6.8-18.1-13.3-20-19.3c-1.9-6.1,1.1-11.2,8.9-15.4
			c7.8-4.2,17-5.6,27.4-4.2c10.4,1.4,21.2,5.5,32.4,12.3c11.1,6.7,17.6,13,19.5,19C615.4,194.9,612.6,200,605,204.2z M640.9,178.3
			c-2,1.1-4.6,1.5-7.9,1.3c-3.3-0.3-6.2-1.2-8.7-2.7c-2.6-1.6-4.1-3.3-4.4-5.2c-0.4-1.9,0.5-3.4,2.5-4.5c2.1-1.1,4.7-1.6,7.9-1.3
			s6.1,1.2,8.7,2.8c2.5,1.5,4,3.2,4.4,5.1C643.8,175.7,642.9,177.2,640.9,178.3z"/>
	</g>
</g>
</svg>
